<svg width="5" height="20" viewBox="0 0 5 20" fill="none" xmlns="http://www.w3.org/2000/svg">
<g clip-path="url(#clip0_704_6527)">
<path d="M19.5302 8.85988C19.2681 7.28738 18.5314 6.07366 17.3875 5.3158C16.8547 5.89411 15.3867 7.48557 14.8326 8.08668C15.724 8.56979 16.2946 9.50531 16.2946 10.549C16.3009 12.9681 13.3817 14.2528 11.6028 12.6192C11.4332 12.9945 11.1953 13.3399 10.8956 13.6396C9.7078 14.9273 6.02846 15.2386 4.45787 15.1929C4.41198 13.6184 4.72456 9.9408 6.01123 8.75513C6.66774 8.09896 7.52421 7.76243 8.38644 7.74593C9.33002 6.87292 10.6385 5.66207 11.5783 4.7924C10.273 5.13637 8.361 6.04703 7.77786 5.18725C7.50495 4.54317 8.74565 3.04653 7.76673 1.79052C6.96448 0.783204 5.16899 0.972419 4.15434 1.68807C-0.785886 5.09896 -1.44647 12.593 2.86629 16.7619C8.14589 22.0821 17.3557 19.6719 19.379 12.4623C19.4889 12.0085 19.8033 10.521 19.5302 8.85988Z" fill="#39C3F2"/>
</g>
<defs>
<clipPath id="clip0_704_6527">
<rect width="19.6411" height="19.6411" fill="white"/>
</clipPath>
</defs>
</svg>
