<svg width="20" height="20" viewBox="0 0 20 20" fill="none" xmlns="http://www.w3.org/2000/svg">
<g clip-path="url(#clip0_704_6509)">
<path d="M6.56542 3.68569V13.4916C5.94115 12.9235 5.11203 12.5769 4.20364 12.5769C2.26652 12.5769 0.690552 14.1529 0.690552 16.09C0.690552 18.0271 2.26652 19.6031 4.20364 19.6031C6.13835 19.6031 7.71252 18.031 7.71657 16.0973H7.71672V9.09033L17.8055 6.05856V11.1281C17.1812 10.5602 16.3521 10.2135 15.4437 10.2135C13.5066 10.2135 11.9307 11.7894 11.9307 13.7265C11.9307 15.6637 13.5066 17.2396 15.4437 17.2396C17.3743 17.2396 18.9459 15.6743 18.9565 13.7462H18.9568V-0.0380859L6.56542 3.68569Z" fill="#6B7AED"/>
</g>
<defs>
<clipPath id="clip0_704_6509">
<rect width="19.6411" height="19.6411" fill="white"/>
</clipPath>
</defs>
</svg>
