<svg width="20" height="20" viewBox="0 0 20 20" fill="none" xmlns="http://www.w3.org/2000/svg">
<g clip-path="url(#clip0_704_6496)">
<path d="M9.2057 2.62896C9.07754 1.78501 8.81837 0.930694 8.44085 0.0959473C6.48042 0.371613 4.70597 1.22589 3.29553 2.48085L8.16821 7.35357C9.12023 6.14284 9.4882 4.48915 9.2057 2.62896Z" fill="#EE544A"/>
<path d="M8.17319 8.98486C7.00945 9.94574 5.5122 10.4477 3.83001 10.4478C3.38433 10.4478 2.92583 10.4126 2.45697 10.3414C1.63788 10.217 0.812222 9.98364 0.00194945 9.6507C0.00106714 9.70652 -0.00012207 9.7623 -0.00012207 9.81834C-0.00012207 12.3232 0.938163 14.6085 2.48172 16.3433L9.00667 9.81834L8.17319 8.98486Z" fill="#EE544A"/>
<path d="M7.3543 8.16565L2.48158 3.29297C1.22662 4.70341 0.372346 6.47782 0.0966797 8.43825C0.931465 8.81576 1.78582 9.07501 2.62965 9.20318C4.48996 9.48571 6.14361 9.11767 7.3543 8.16565Z" fill="#EE544A"/>
<path d="M17.0111 10.4338C15.1509 10.1512 13.4972 10.5193 12.2865 11.4713L17.1592 16.344C18.4141 14.9335 19.2684 13.1591 19.5441 11.1987C18.7094 10.8212 17.8551 10.562 17.0111 10.4338Z" fill="#EE544A"/>
<path d="M10.6538 11.4666L9.82048 10.6333L3.29553 17.1583C5.03036 18.7018 7.31567 19.6401 9.82048 19.6401C9.87653 19.6401 9.93231 19.6389 9.98812 19.638C9.65522 18.8277 9.42183 18.0021 9.29742 17.183C8.95754 14.9445 9.43833 12.9386 10.6538 11.4666Z" fill="#EE544A"/>
<path d="M8.98706 8.17179L9.82035 9.00508L16.3453 2.48013C14.6105 0.936538 12.3252 -0.00170898 9.82035 -0.00170898C9.7643 -0.00170898 9.70853 -0.000519777 9.65271 0.0004009C9.98561 0.810635 10.219 1.63621 10.3434 2.45542C10.6833 4.69386 10.2025 6.69978 8.98706 8.17179Z" fill="#EE544A"/>
<path d="M10.435 17.0095C10.5631 17.8534 10.8224 18.7077 11.1999 19.5425C13.1603 19.2669 14.9347 18.4126 16.3452 17.1576L11.4724 12.2849C10.5205 13.4956 10.1525 15.1493 10.435 17.0095Z" fill="#EE544A"/>
<path d="M11.4676 10.6512C12.9396 9.43576 14.9455 8.95502 17.1839 9.2949C18.0031 9.41931 18.8288 9.65274 19.639 9.9856C19.6399 9.92978 19.6411 9.87401 19.6411 9.81792C19.6411 7.3131 18.7028 5.02779 17.1592 3.29297L10.6343 9.81796L11.4676 10.6512Z" fill="#EE544A"/>
</g>
<defs>
<clipPath id="clip0_704_6496">
<rect width="19.6411" height="19.6411" fill="white"/>
</clipPath>
</defs>
</svg>
